<?xml version="1.0" standalone="no"?><!DOCTYPE svg PUBLIC "-//W3C//DTD SVG 1.1//EN" "http://www.w3.org/Graphics/SVG/1.1/DTD/svg11.dtd"><svg t="1700465748677" class="icon" viewBox="0 0 1024 1024" version="1.1" xmlns="http://www.w3.org/2000/svg" p-id="1317" xmlns:xlink="http://www.w3.org/1999/xlink" width="200" height="200"><path d="M170.666667 640v-85.333333a42.666667 42.666667 0 0 1 42.666666-42.666667h85.333334a42.666667 42.666667 0 0 1 42.666666 42.666667v85.333333a42.666667 42.666667 0 0 1-42.666666 42.666667H213.333333a42.666667 42.666667 0 0 1-42.666666-42.666667z m298.666666 42.666667h85.333334a42.666667 42.666667 0 0 0 42.666666-42.666667V213.333333a42.666667 42.666667 0 0 0-42.666666-42.666666h-85.333334a42.666667 42.666667 0 0 0-42.666666 42.666666v426.666667a42.666667 42.666667 0 0 0 42.666666 42.666667z m256 0h85.333334a42.666667 42.666667 0 0 0 42.666666-42.666667V384a42.666667 42.666667 0 0 0-42.666666-42.666667h-85.333334a42.666667 42.666667 0 0 0-42.666666 42.666667v256a42.666667 42.666667 0 0 0 42.666666 42.666667z m192 85.333333h-810.666666a21.333333 21.333333 0 0 0-21.333334 21.333333v42.666667a21.333333 21.333333 0 0 0 21.333334 21.333333h810.666666a21.333333 21.333333 0 0 0 21.333334-21.333333v-42.666667a21.333333 21.333333 0 0 0-21.333334-21.333333z" fill="#e6e6e6" p-id="1318"></path></svg>